<svg xmlns:dc="http://purl.org/dc/elements/1.1/" xmlns:cc="http://creativecommons.org/ns#" xmlns:rdf="http://www.w3.org/1999/02/22-rdf-syntax-ns#" xmlns:svg="http://www.w3.org/2000/svg" xmlns="http://www.w3.org/2000/svg" xmlns:sodipodi="http://sodipodi.sourceforge.net/DTD/sodipodi-0.dtd" xmlns:inkscape="http://www.inkscape.org/namespaces/inkscape" version="1.1" x="0px" y="0px" viewBox="0 0 100 100" enable-background="new 0 0 512 512" xml:space="preserve"><path style="" d="M 48.4375 5 C 47.201631 5.043735 45.968143 5.1337109 44.71875 5.28125 C 38.989417 5.95712 33.646133 7.6926546 28.84375 10.25 L 37.6875 25.5625 C 40.465505 24.162283 43.512432 23.198034 46.78125 22.8125 C 47.334575 22.74716 47.887583 22.719643 48.4375 22.6875 L 48.4375 5 z M 51.5625 5 L 51.5625 22.6875 C 55.38791 22.900202 59.021498 23.899172 62.3125 25.5625 L 71.15625 10.25 C 65.233693 7.0896761 58.567098 5.2327255 51.5625 5 z M 26.15625 11.8125 C 20.317914 15.461987 15.423012 20.380794 11.8125 26.15625 L 27.125 35 C 29.173705 31.879722 31.850003 29.193535 35 27.125 L 26.15625 11.8125 z M 73.84375 11.8125 L 65 27.125 C 68.122245 29.174565 70.836468 31.848633 72.90625 35 L 88.1875 26.15625 C 84.53868 20.318763 79.617327 15.423697 73.84375 11.8125 z M 10.25 28.84375 C 7.0903787 34.76657 5.2324972 41.432726 5 48.4375 L 22.6875 48.4375 C 22.900062 44.612371 23.899839 40.977624 25.5625 37.6875 L 10.25 28.84375 z M 89.75 28.84375 L 74.4375 37.6875 C 75.839069 40.466857 76.801632 43.542224 77.1875 46.8125 C 77.25268 47.365069 77.280814 47.889322 77.3125 48.4375 L 95 48.4375 C 94.956055 47.204113 94.865921 45.965983 94.71875 44.71875 C 94.042599 38.987907 92.308241 33.64738 89.75 28.84375 z M 64.78125 32.78125 C 64.159425 32.780264 63.536803 33.025058 63.0625 33.5 L 52.21875 44.375 L 51.71875 43.875 C 51.350113 43.506328 50.786082 43.463865 50.46875 43.78125 C 50.151313 44.098635 50.193726 44.662577 50.5625 45.03125 L 50.9375 45.40625 L 36.34375 60 C 35.792059 60.551691 35.514623 61.318115 35.59375 62.09375 L 32.78125 65.4375 L 34.5625 67.21875 L 37.90625 64.40625 C 38.681182 64.4823 39.448309 64.208292 40 63.65625 L 54.59375 49.09375 L 54.96875 49.4375 C 55.337423 49.806348 55.901313 49.848633 56.21875 49.53125 C 56.536206 49.21369 56.493655 48.649923 56.125 48.28125 L 55.625 47.78125 L 66.5 36.90625 C 67.448606 35.957608 67.448431 34.447763 66.5 33.5 C 66.025469 33.025503 65.403075 32.782236 64.78125 32.78125 z M 51.4375 45.90625 L 54.09375 48.5625 L 39.5 63.15625 C 39.07867 63.577439 38.467704 63.782698 37.875 63.6875 L 37.71875 63.65625 L 34.65625 66.28125 L 33.71875 65.375 L 36.34375 62.28125 L 36.34375 62.125 C 36.24827 61.532385 36.422086 60.920838 36.84375 60.5 L 51.4375 45.90625 z M 5 51.5625 C 5.043998 52.794979 5.1341675 54.03472 5.28125 55.28125 C 5.957155 61.00981 7.6929004 66.35385 10.25 71.15625 L 25.5625 62.3125 C 24.161966 59.534724 23.198139 56.48727 22.8125 53.21875 C 22.74737 52.666708 22.719221 52.110151 22.6875 51.5625 L 5 51.5625 z M 77.3125 51.5625 C 77.099394 55.383765 76.099124 59.025011 74.4375 62.3125 L 89.75 71.15625 C 92.90913 65.233255 94.767187 58.56499 95 51.5625 L 77.3125 51.5625 z M 27.125 65 L 11.8125 73.84375 C 15.46167 79.680681 20.382216 84.576479 26.15625 88.1875 L 35 72.875 C 31.880267 70.826313 29.194079 68.149259 27.125 65 z M 72.875 65 C 70.825453 68.119575 68.150875 70.805412 65 72.875 L 73.84375 88.1875 C 79.683474 84.536608 84.577427 79.619558 88.1875 73.84375 L 72.875 65 z M 37.6875 74.4375 L 28.84375 89.75 C 34.766622 92.910148 41.433692 94.766397 48.4375 95 L 48.4375 77.3125 C 44.614391 77.097484 40.976746 76.099775 37.6875 74.4375 z M 62.3125 74.4375 C 59.575507 75.817518 56.559348 76.759299 53.34375 77.15625 L 53.21875 77.1875 C 52.664213 77.25301 52.112628 77.280884 51.5625 77.3125 L 51.5625 95 C 52.797368 94.95609 54.032313 94.866113 55.28125 94.71875 L 55.53125 94.6875 C 61.172129 93.991431 66.421314 92.272041 71.15625 89.75 L 62.3125 74.4375 z " fill="#000000" fill-opacity="1"/></svg>